<mxfile host="app.diagrams.net" agent="Mozilla/5.0 (Windows NT 10.0; Win64; x64) AppleWebKit/537.36 (KHTML, like Gecko) Chrome/137.0.0.0 Safari/537.36" version="27.1.4">
  <diagram name="Trang-1" id="x0oTW2m92vLeMX3hkPG7">
    <mxGraphModel dx="1389" dy="703" grid="1" gridSize="10" guides="1" tooltips="1" connect="1" arrows="1" fold="1" page="1" pageScale="1" pageWidth="827" pageHeight="1169" math="0" shadow="0">
      <root>
        <mxCell id="0" />
        <mxCell id="1" parent="0" />
        <mxCell id="xiv2FCXsHOoxo4l69yYx-1" value="Actor" style="shape=umlActor;verticalLabelPosition=bottom;verticalAlign=top;html=1;outlineConnect=0;" parent="1" vertex="1">
          <mxGeometry x="80" y="230" width="30" height="60" as="geometry" />
        </mxCell>
        <mxCell id="dMVSxh5RyCf0dUTEz_ys-5" style="edgeStyle=orthogonalEdgeStyle;rounded=0;orthogonalLoop=1;jettySize=auto;html=1;exitX=0.875;exitY=0.5;exitDx=0;exitDy=0;exitPerimeter=0;entryX=0;entryY=0.5;entryDx=0;entryDy=0;" edge="1" parent="1" source="xiv2FCXsHOoxo4l69yYx-3" target="dMVSxh5RyCf0dUTEz_ys-4">
          <mxGeometry relative="1" as="geometry" />
        </mxCell>
        <mxCell id="xiv2FCXsHOoxo4l69yYx-3" value="AI agent 1&amp;nbsp;" style="ellipse;shape=cloud;whiteSpace=wrap;html=1;fillColor=#e3c800;fontColor=#000000;strokeColor=#B09500;" parent="1" vertex="1">
          <mxGeometry x="180" y="230" width="120" height="80" as="geometry" />
        </mxCell>
        <mxCell id="xiv2FCXsHOoxo4l69yYx-4" value="Nghị định&amp;nbsp; 168" style="whiteSpace=wrap;html=1;aspect=fixed;" parent="1" vertex="1">
          <mxGeometry x="430" y="120" width="80" height="80" as="geometry" />
        </mxCell>
        <mxCell id="xiv2FCXsHOoxo4l69yYx-5" value="Luật Trật Tự An toàn Giao thông" style="whiteSpace=wrap;html=1;aspect=fixed;" parent="1" vertex="1">
          <mxGeometry x="430" y="240" width="80" height="80" as="geometry" />
        </mxCell>
        <mxCell id="xiv2FCXsHOoxo4l69yYx-30" style="edgeStyle=orthogonalEdgeStyle;rounded=0;orthogonalLoop=1;jettySize=auto;html=1;exitX=1;exitY=0.5;exitDx=0;exitDy=0;entryX=0.55;entryY=0.95;entryDx=0;entryDy=0;entryPerimeter=0;" parent="1" source="xiv2FCXsHOoxo4l69yYx-6" target="xiv2FCXsHOoxo4l69yYx-21" edge="1">
          <mxGeometry relative="1" as="geometry">
            <mxPoint x="670" y="340" as="targetPoint" />
            <Array as="points">
              <mxPoint x="666" y="410" />
            </Array>
          </mxGeometry>
        </mxCell>
        <mxCell id="xiv2FCXsHOoxo4l69yYx-6" value="Luật khác" style="whiteSpace=wrap;html=1;aspect=fixed;" parent="1" vertex="1">
          <mxGeometry x="430" y="370" width="80" height="80" as="geometry" />
        </mxCell>
        <mxCell id="xiv2FCXsHOoxo4l69yYx-7" value="AI&amp;nbsp; agent 3" style="ellipse;shape=cloud;whiteSpace=wrap;html=1;fillColor=#e3c800;fontColor=#000000;strokeColor=#B09500;" parent="1" vertex="1">
          <mxGeometry x="600" y="120" width="120" height="80" as="geometry" />
        </mxCell>
        <mxCell id="xiv2FCXsHOoxo4l69yYx-33" style="edgeStyle=none;rounded=0;orthogonalLoop=1;jettySize=auto;html=1;exitX=0.5;exitY=1;exitDx=0;exitDy=0;entryX=0.5;entryY=0;entryDx=0;entryDy=0;" parent="1" source="xiv2FCXsHOoxo4l69yYx-51" target="xiv2FCXsHOoxo4l69yYx-32" edge="1">
          <mxGeometry relative="1" as="geometry" />
        </mxCell>
        <mxCell id="xiv2FCXsHOoxo4l69yYx-8" value="Corpus" style="shape=datastore;whiteSpace=wrap;html=1;" parent="1" vertex="1">
          <mxGeometry x="900" y="390" width="60" height="60" as="geometry" />
        </mxCell>
        <mxCell id="xiv2FCXsHOoxo4l69yYx-9" value="" style="verticalLabelPosition=bottom;verticalAlign=top;html=1;shape=mxgraph.basic.8_point_star;fillColor=#1ba1e2;fontColor=#ffffff;strokeColor=#006EAF;" parent="1" vertex="1">
          <mxGeometry x="867" y="100" width="100" height="100" as="geometry" />
        </mxCell>
        <mxCell id="xiv2FCXsHOoxo4l69yYx-17" style="edgeStyle=orthogonalEdgeStyle;rounded=0;orthogonalLoop=1;jettySize=auto;html=1;exitX=0.55;exitY=0.95;exitDx=0;exitDy=0;exitPerimeter=0;entryX=0.5;entryY=0;entryDx=0;entryDy=0;" parent="1" source="xiv2FCXsHOoxo4l69yYx-10" target="xiv2FCXsHOoxo4l69yYx-8" edge="1">
          <mxGeometry relative="1" as="geometry" />
        </mxCell>
        <mxCell id="xiv2FCXsHOoxo4l69yYx-10" value="&lt;font style=&quot;font-size: 10px;&quot;&gt;AI agent 5 (Evaluator&lt;/font&gt;)" style="ellipse;shape=cloud;whiteSpace=wrap;html=1;fillColor=#e3c800;fontColor=#000000;strokeColor=#B09500;" parent="1" vertex="1">
          <mxGeometry x="880" y="250" width="120" height="80" as="geometry" />
        </mxCell>
        <mxCell id="xiv2FCXsHOoxo4l69yYx-11" value="LLM" style="ellipse;shape=cloud;whiteSpace=wrap;html=1;fillColor=#e3c800;fontColor=#000000;strokeColor=#B09500;" parent="1" vertex="1">
          <mxGeometry x="1110" y="240" width="120" height="80" as="geometry" />
        </mxCell>
        <mxCell id="xiv2FCXsHOoxo4l69yYx-28" style="edgeStyle=orthogonalEdgeStyle;rounded=0;orthogonalLoop=1;jettySize=auto;html=1;" parent="1" edge="1">
          <mxGeometry relative="1" as="geometry">
            <mxPoint x="1170" y="310" as="sourcePoint" />
            <mxPoint x="90" y="300" as="targetPoint" />
            <Array as="points">
              <mxPoint x="1170" y="705" />
              <mxPoint x="90" y="705" />
            </Array>
          </mxGeometry>
        </mxCell>
        <mxCell id="xiv2FCXsHOoxo4l69yYx-13" style="edgeStyle=orthogonalEdgeStyle;rounded=0;orthogonalLoop=1;jettySize=auto;html=1;exitX=1;exitY=0.5;exitDx=0;exitDy=0;entryX=0.07;entryY=0.505;entryDx=0;entryDy=0;entryPerimeter=0;" parent="1" source="xiv2FCXsHOoxo4l69yYx-4" target="xiv2FCXsHOoxo4l69yYx-7" edge="1">
          <mxGeometry relative="1" as="geometry" />
        </mxCell>
        <mxCell id="xiv2FCXsHOoxo4l69yYx-14" style="edgeStyle=orthogonalEdgeStyle;rounded=0;orthogonalLoop=1;jettySize=auto;html=1;exitX=0.875;exitY=0.5;exitDx=0;exitDy=0;exitPerimeter=0;" parent="1" source="xiv2FCXsHOoxo4l69yYx-7" edge="1">
          <mxGeometry relative="1" as="geometry">
            <mxPoint x="846.25" y="155" as="sourcePoint" />
            <mxPoint x="875" y="160" as="targetPoint" />
            <Array as="points">
              <mxPoint x="875" y="160" />
            </Array>
          </mxGeometry>
        </mxCell>
        <mxCell id="xiv2FCXsHOoxo4l69yYx-21" value="AI agent 2" style="ellipse;shape=cloud;whiteSpace=wrap;html=1;fillColor=#e3c800;fontColor=#000000;strokeColor=#B09500;" parent="1" vertex="1">
          <mxGeometry x="600" y="250" width="120" height="80" as="geometry" />
        </mxCell>
        <mxCell id="xiv2FCXsHOoxo4l69yYx-22" style="edgeStyle=orthogonalEdgeStyle;rounded=0;orthogonalLoop=1;jettySize=auto;html=1;exitX=0.875;exitY=0.5;exitDx=0;exitDy=0;exitPerimeter=0;entryX=0.107;entryY=0.52;entryDx=0;entryDy=0;entryPerimeter=0;" parent="1" source="xiv2FCXsHOoxo4l69yYx-21" target="xiv2FCXsHOoxo4l69yYx-10" edge="1">
          <mxGeometry relative="1" as="geometry" />
        </mxCell>
        <mxCell id="xiv2FCXsHOoxo4l69yYx-23" style="edgeStyle=orthogonalEdgeStyle;rounded=0;orthogonalLoop=1;jettySize=auto;html=1;exitX=0.71;exitY=1;exitDx=0;exitDy=0;exitPerimeter=0;entryX=0.467;entryY=0.15;entryDx=0;entryDy=0;entryPerimeter=0;" parent="1" source="xiv2FCXsHOoxo4l69yYx-9" target="xiv2FCXsHOoxo4l69yYx-10" edge="1">
          <mxGeometry relative="1" as="geometry" />
        </mxCell>
        <mxCell id="xiv2FCXsHOoxo4l69yYx-24" style="edgeStyle=orthogonalEdgeStyle;rounded=0;orthogonalLoop=1;jettySize=auto;html=1;exitX=0.875;exitY=0.5;exitDx=0;exitDy=0;exitPerimeter=0;entryX=0.16;entryY=0.55;entryDx=0;entryDy=0;entryPerimeter=0;" parent="1" source="xiv2FCXsHOoxo4l69yYx-10" target="xiv2FCXsHOoxo4l69yYx-11" edge="1">
          <mxGeometry relative="1" as="geometry" />
        </mxCell>
        <mxCell id="xiv2FCXsHOoxo4l69yYx-29" style="edgeStyle=orthogonalEdgeStyle;rounded=0;orthogonalLoop=1;jettySize=auto;html=1;exitX=1;exitY=0.5;exitDx=0;exitDy=0;entryX=0.16;entryY=0.55;entryDx=0;entryDy=0;entryPerimeter=0;" parent="1" source="xiv2FCXsHOoxo4l69yYx-5" target="xiv2FCXsHOoxo4l69yYx-21" edge="1">
          <mxGeometry relative="1" as="geometry" />
        </mxCell>
        <mxCell id="xiv2FCXsHOoxo4l69yYx-31" style="edgeStyle=none;rounded=0;orthogonalLoop=1;jettySize=auto;html=1;exitX=0.625;exitY=0.2;exitDx=0;exitDy=0;exitPerimeter=0;entryX=0.628;entryY=0.875;entryDx=0;entryDy=0;entryPerimeter=0;" parent="1" source="xiv2FCXsHOoxo4l69yYx-21" target="xiv2FCXsHOoxo4l69yYx-7" edge="1">
          <mxGeometry relative="1" as="geometry" />
        </mxCell>
        <mxCell id="xiv2FCXsHOoxo4l69yYx-36" style="edgeStyle=orthogonalEdgeStyle;rounded=0;orthogonalLoop=1;jettySize=auto;html=1;exitX=0;exitY=0.5;exitDx=0;exitDy=0;" parent="1" source="xiv2FCXsHOoxo4l69yYx-32" edge="1">
          <mxGeometry relative="1" as="geometry">
            <mxPoint x="810" y="500" as="targetPoint" />
          </mxGeometry>
        </mxCell>
        <mxCell id="xiv2FCXsHOoxo4l69yYx-32" value="" style="shape=image;verticalLabelPosition=bottom;verticalAlign=top;imageAspect=0;image=data:image/png,iVBORw0KGgoAAAANSUhEUgAAAMwAAADACAMAAAB/Pny7AAAAbFBMVEX///80NDQuLi4FBQUnJye3t7c9PT3i4uJhYWEAAAAxMTH8/Pzu7u4qKiodHR0kJCT09PTIyMgUFBTV1dWXl5e9vb2NjY2CgoJbW1sNDQ2oqKh8fHxWVlbc3NzPz89DQ0NOTk5zc3Ofn59ra2s3AP1dAAAJSUlEQVR4nO2cC7ejqg6AkWqtoPhuq323//8/3gRti2j3485MsWflW2ed2ZvSvYhASEIiYwRBEARBEARBEARBEARBEARBEARBEARBEARBEARBECOklPrfrMyDFgjyMs4cj+n/R2ZhuzsXURQtFk3TLOAHdd61YdZL+RHooWZhsPOjJk2E58F/PSJRTeRfgvBTpghkkWG98aP0KcQAni7SXR1K9gkTJMt2qxQ3Rq9/TvhzioRS27acuzAwvrLaK9+ciOK0B2n49tSYU+Wrc1Wyec9OfN2rRD/8fuSKX49t4XlFe2yF6idG/z9R+2voerxfUa+4302H2uohN5ejZPXC8xY1k8dLg4KIvSo4iusn29r1iF8Sb5Z61/OIV4cTjndRxbCUAhQmgBUVVwv4nC8P1TLCjsJfbuJ5LrXj3setLhp+jdkGlpQoWhzoUxgmWwVCpBsWt7wQenb2R9fjniLw9ApL0wpOkTzC/bLOtKZ+CsOyCoWMavwp9VEc3wtcj3xEdtXamCe3A/7mwS/pLtYfmcKweJdCLw9PzfDmc1x1xXVmZ2i8jvRjPgVolbENTFKyPXSfmcJIdtiDtvM3WisHJz05i3Xscuw28RoPEZ7e4OiAUR5PeEK2/dYezIyE5Sg8fjrqDw+rFOdzVtJk60Kf9N0eYXIHJllyuS+egTDw6wUWl7/rbeoNT7Q081lpmwbP9GXb21s5TAz3HlrKEoaVemry3iJtl6g3ms37Rz0B7JAW90uyDLRtDwKt/W5X3HtYwrAN6AB/Le+fammi6xzOG9gEvJelM5lZiVu8CR+DGwkTgt5O9uXj4xP0F3wWxsARx8JF28kCM3UFMyC9sdfCsEvqifR61wiyRUV+1wlOyW4+el3VYyThDVZRdHj2GAtzgKnxb08rswL/wEtu7pVAhbKkF/mYiRzOjmRp9BgLw2AyRZo/OrAd2nR+9Z4RvyY/gRrm2+dDzaoCh2726a1mswXUX1E9vyRXuFTvGs4V8QVtLZFn8Z1yC09dhbFBAOI1gdkSwkwk2/LxrQzVtacubk3ooItY3FYP9tqPMRpWqzPu77PZcltqv8ZoOGFDEriL3Mhus6NNlvp3Ei1M8mzwtWPgcd+ki9UYDfpb6cqZ6ymlxAX0NykCd8ss3qIq4yb6CQ+buuiM1TTRDxXaNnYV5JC1tpWXBie9GZYWXdvpy37QAk2FMzsgW6WoYQ+hwVqhYg4HdNGZYRuePenGbDlUDe4aVydn2eDeL80mCfJZTVPnDHxXcFhUgxVV4snZWN99G+jFqM3Ar8pAmfmWTpqwAMDoWaERMJiGGIMgav2vRvs1Erx+oYanNlpdlnzTwmS4Hk0LDsiV8ETh4qgB5xjNRWsWahTmOhzOpDASN1JUD55EZ6K6CT3BsxWqGo7xCkNMrdjRpDAsUKg8hh0rV+tMMvBChKiH5wKYaoLnVs9JYXKuvZ5Ba40OtfhHA/6SDP3FraV8QEB+thbKtDDlOYGD1GpbwSEcuVDOefOM8z1Y4DYabusXwhz0wIdtGeqzxprYt6AXuOVPSZit9GJZi9PChBfc7VbjNR3/zbdw8WGFW3s9jiZma1oYfapEVlcMEPqXvz/Wbznj9rCWhD5m7IDetDBTBw3L9R99/0Ej4SEm9vYoo4llMi2M1sOR/TDQTRXvv7sN+fjI7M9Mu2snjN16VfrUHBDfYO3y93toIVjsKTrtBixotAFgUXczY4GbvWmH388wosbfb2seOcYkggE1Xr4ku8ACw7FqU1utOzw17VY0P+1D9w3k6EslzcIk0hGBdDGk0a1qstXq2zgK1NZ8yol/kZXxG1zMTJ38+bhnI0yOM/OjZbbQuQyqsVqnFp+rZaYVwGpCAXBbAdSdAhiphUkFwJ3MTImXeZdsrJrTkWrW50w9Vs3CK0aq2XeimmPOPf9m2VafemhKz7z+6unMGdtweWHOFC/MGc9BEODfGZp/fajf88cuAPoz1ooKltoFeP/U4JpP/6pzJlmVjv/mW5h0mzEu8Ilu82RAY8n1tfGAVwENzHwYrih3AQ0c+Oi01ib8n4WavH8x1m+QGAQEPTx8jqhv1W+CgGaruyAge4RnzfHgqVn8LDyrJsKzvqPwrNSBc08N19SfB86VozvaqSsNNHJ+dqXhT11piGLt6BowbOBJptZlkz9x2RRNXTbhRc74sqlwddn06hqw+ck1YGNfA4aoPNKVqyIOWesEwME1q05O8KYuaE+DftjGh03o7RW1q8vml1fn1jX51NU57zxk66vp1lWyJuizl0kNvw1s9P1dJjU8002edHEOM7UkGaebdJ34I98kcZ5uguiURuFdjESgxMoMmkwEwidgJgJdPNeJQAwTyOFs8L5L0WpGKVp4w26maOmQIqZoOSU/Y9rb3siDu2pFbPYZJzUEg+Q52HxbzGs8uTD+DcCfwtIS//JcHjmmBn6Z1ii1we0bGQQYohJOvLIhGeoATDi989uEU4l5nqJLOHWePlvq/a1TgRHJ2i4V+LGXJ1KB1UxTgTGEjs/Va++D00naRqhinKS9wCjV3dSX7RIVYDKLJG3G2oV3TzlH5BpWzcv0eSxIeabP63nBUycahQ5dsUZp/OW9qCfHtOVXhQ2SHfE2dJ6FDUi2brT1tbFKTibqZ7DkJMHrNbyFlfeSk2JGJScgDc6NuBcDlScuXhQDsUcxEC648qaLgZo5FQNhnnlfptXqQeKueQSih8JgOPm+o9oTmna6TGsGiuwJHPxYmsU7n/lRQCeH1YASC+jA/BG6gG6lTVCu5lZAxzDolaKZ9k1pI3qiOvifVV2qdjLD0kag3PZFp2lfdOo1+pkPik6x1FRtWHxNCl1sO9OiU3zsXTmwiLx7OfB6WA7cFUAuDxVfaLl1OfAskV2htn7gheoKHJpbX6gd6ULthfbJukJtUAN8VTM217dQwP6+bvu3AfRpAkYJ/ZV3JfSi8/+xhH5mWmzE4bpXqend9y832J8KIw1C+GpfuQqR/RRUXod2NXjthNAef2K2KLXC107Me1o6ZFiv/QjlmQrSiHThb/CFIB9DFtYbL2pUMhBHJOkiErsgzD5IlM661y/RURG+Rad7h879JTqPLh9HdsjroG2DOj/Mz2r5JZ85A6+Q7L8mEUEQBEEQBEEQBEEQBEEQBEEQBEEQBEEQBEEQBPHp/A/lzZ2GUi7OtwAAAABJRU5ErkJggg==;" parent="1" vertex="1">
          <mxGeometry x="880" y="584" width="100" height="90" as="geometry" />
        </mxCell>
        <mxCell id="xiv2FCXsHOoxo4l69yYx-39" value="User&amp;nbsp; question" style="text;html=1;align=center;verticalAlign=middle;whiteSpace=wrap;rounded=0;" parent="1" vertex="1">
          <mxGeometry x="130" y="220" width="60" height="30" as="geometry" />
        </mxCell>
        <mxCell id="xiv2FCXsHOoxo4l69yYx-40" value="Có lỗi" style="text;html=1;align=center;verticalAlign=middle;whiteSpace=wrap;rounded=0;" parent="1" vertex="1">
          <mxGeometry x="670" y="210" width="60" height="30" as="geometry" />
        </mxCell>
        <mxCell id="xiv2FCXsHOoxo4l69yYx-41" value="không có lỗi" style="text;html=1;align=center;verticalAlign=middle;whiteSpace=wrap;rounded=0;" parent="1" vertex="1">
          <mxGeometry x="720" y="310" width="60" height="30" as="geometry" />
        </mxCell>
        <mxCell id="xiv2FCXsHOoxo4l69yYx-42" value="Knowledge Graph" style="text;html=1;align=center;verticalAlign=middle;whiteSpace=wrap;rounded=0;" parent="1" vertex="1">
          <mxGeometry x="887" y="135" width="60" height="30" as="geometry" />
        </mxCell>
        <mxCell id="xiv2FCXsHOoxo4l69yYx-43" value="Yes" style="text;html=1;align=center;verticalAlign=middle;whiteSpace=wrap;rounded=0;" parent="1" vertex="1">
          <mxGeometry x="1010" y="255" width="60" height="30" as="geometry" />
        </mxCell>
        <mxCell id="xiv2FCXsHOoxo4l69yYx-44" value="No" style="text;html=1;align=center;verticalAlign=middle;whiteSpace=wrap;rounded=0;" parent="1" vertex="1">
          <mxGeometry x="960" y="340" width="60" height="30" as="geometry" />
        </mxCell>
        <mxCell id="xiv2FCXsHOoxo4l69yYx-46" value="Yes" style="text;html=1;align=center;verticalAlign=middle;whiteSpace=wrap;rounded=0;" parent="1" vertex="1">
          <mxGeometry x="827" y="460" width="60" height="30" as="geometry" />
        </mxCell>
        <mxCell id="xiv2FCXsHOoxo4l69yYx-49" style="edgeStyle=orthogonalEdgeStyle;rounded=0;orthogonalLoop=1;jettySize=auto;html=1;exitX=0.07;exitY=0.4;exitDx=0;exitDy=0;exitPerimeter=0;entryX=1;entryY=0.5;entryDx=0;entryDy=0;" parent="1" source="xiv2FCXsHOoxo4l69yYx-47" target="xiv2FCXsHOoxo4l69yYx-8" edge="1">
          <mxGeometry relative="1" as="geometry">
            <Array as="points">
              <mxPoint x="1006" y="425" />
              <mxPoint x="980" y="425" />
              <mxPoint x="980" y="420" />
            </Array>
          </mxGeometry>
        </mxCell>
        <mxCell id="xiv2FCXsHOoxo4l69yYx-47" value="AI agent 6" style="ellipse;shape=cloud;whiteSpace=wrap;html=1;fillColor=#e3c800;fontColor=#000000;strokeColor=#B09500;" parent="1" vertex="1">
          <mxGeometry x="1000" y="390" width="80" height="70" as="geometry" />
        </mxCell>
        <mxCell id="xiv2FCXsHOoxo4l69yYx-52" value="" style="edgeStyle=none;rounded=0;orthogonalLoop=1;jettySize=auto;html=1;exitX=0.5;exitY=1;exitDx=0;exitDy=0;entryX=0.5;entryY=0;entryDx=0;entryDy=0;" parent="1" source="xiv2FCXsHOoxo4l69yYx-8" target="xiv2FCXsHOoxo4l69yYx-51" edge="1">
          <mxGeometry relative="1" as="geometry">
            <mxPoint x="930" y="450" as="sourcePoint" />
            <mxPoint x="930" y="550" as="targetPoint" />
          </mxGeometry>
        </mxCell>
        <mxCell id="xiv2FCXsHOoxo4l69yYx-56" style="edgeStyle=orthogonalEdgeStyle;rounded=0;orthogonalLoop=1;jettySize=auto;html=1;exitX=0.07;exitY=0.4;exitDx=0;exitDy=0;exitPerimeter=0;" parent="1" source="xiv2FCXsHOoxo4l69yYx-51" edge="1">
          <mxGeometry relative="1" as="geometry">
            <mxPoint x="810" y="290" as="targetPoint" />
          </mxGeometry>
        </mxCell>
        <mxCell id="xiv2FCXsHOoxo4l69yYx-51" value="AI agent 5 (Evaluator)" style="ellipse;shape=cloud;whiteSpace=wrap;html=1;fillColor=#e3c800;fontColor=#000000;strokeColor=#B09500;" parent="1" vertex="1">
          <mxGeometry x="885" y="470" width="90" height="60" as="geometry" />
        </mxCell>
        <mxCell id="xiv2FCXsHOoxo4l69yYx-54" value="No" style="text;html=1;align=center;verticalAlign=middle;whiteSpace=wrap;rounded=0;" parent="1" vertex="1">
          <mxGeometry x="930" y="530" width="60" height="30" as="geometry" />
        </mxCell>
        <mxCell id="xiv2FCXsHOoxo4l69yYx-66" style="edgeStyle=orthogonalEdgeStyle;rounded=0;orthogonalLoop=1;jettySize=auto;html=1;exitX=0.5;exitY=0;exitDx=0;exitDy=0;" parent="1" edge="1">
          <mxGeometry relative="1" as="geometry">
            <mxPoint x="230.33333333333348" y="460" as="targetPoint" />
            <mxPoint x="230" y="460" as="sourcePoint" />
          </mxGeometry>
        </mxCell>
        <mxCell id="CWVN3KhxaM03ivOrPo9Y-4" value="" style="edgeStyle=orthogonalEdgeStyle;rounded=0;orthogonalLoop=1;jettySize=auto;html=1;entryX=0.16;entryY=0.55;entryDx=0;entryDy=0;entryPerimeter=0;" parent="1" target="xiv2FCXsHOoxo4l69yYx-3" edge="1">
          <mxGeometry relative="1" as="geometry">
            <mxPoint x="110" y="274" as="sourcePoint" />
            <mxPoint x="36" y="278.5" as="targetPoint" />
          </mxGeometry>
        </mxCell>
        <mxCell id="dMVSxh5RyCf0dUTEz_ys-6" style="edgeStyle=orthogonalEdgeStyle;rounded=0;orthogonalLoop=1;jettySize=auto;html=1;exitX=0.5;exitY=0;exitDx=0;exitDy=0;entryX=0;entryY=0.5;entryDx=0;entryDy=0;" edge="1" parent="1" source="dMVSxh5RyCf0dUTEz_ys-4" target="xiv2FCXsHOoxo4l69yYx-4">
          <mxGeometry relative="1" as="geometry" />
        </mxCell>
        <mxCell id="dMVSxh5RyCf0dUTEz_ys-7" style="edgeStyle=orthogonalEdgeStyle;rounded=0;orthogonalLoop=1;jettySize=auto;html=1;exitX=1;exitY=0.5;exitDx=0;exitDy=0;entryX=0;entryY=0.5;entryDx=0;entryDy=0;" edge="1" parent="1" source="dMVSxh5RyCf0dUTEz_ys-4" target="xiv2FCXsHOoxo4l69yYx-5">
          <mxGeometry relative="1" as="geometry" />
        </mxCell>
        <mxCell id="dMVSxh5RyCf0dUTEz_ys-8" style="edgeStyle=orthogonalEdgeStyle;rounded=0;orthogonalLoop=1;jettySize=auto;html=1;exitX=0.5;exitY=1;exitDx=0;exitDy=0;entryX=0;entryY=0.5;entryDx=0;entryDy=0;" edge="1" parent="1" source="dMVSxh5RyCf0dUTEz_ys-4" target="xiv2FCXsHOoxo4l69yYx-6">
          <mxGeometry relative="1" as="geometry" />
        </mxCell>
        <mxCell id="dMVSxh5RyCf0dUTEz_ys-4" value="" style="rhombus;whiteSpace=wrap;html=1;" vertex="1" parent="1">
          <mxGeometry x="330" y="250" width="60" height="50" as="geometry" />
        </mxCell>
        <mxCell id="dMVSxh5RyCf0dUTEz_ys-10" style="edgeStyle=orthogonalEdgeStyle;rounded=0;orthogonalLoop=1;jettySize=auto;html=1;exitX=0.625;exitY=0.2;exitDx=0;exitDy=0;exitPerimeter=0;entryX=0.4;entryY=0.1;entryDx=0;entryDy=0;entryPerimeter=0;" edge="1" parent="1" source="xiv2FCXsHOoxo4l69yYx-10" target="xiv2FCXsHOoxo4l69yYx-11">
          <mxGeometry relative="1" as="geometry">
            <Array as="points">
              <mxPoint x="955" y="210" />
              <mxPoint x="1158" y="210" />
            </Array>
          </mxGeometry>
        </mxCell>
        <mxCell id="dMVSxh5RyCf0dUTEz_ys-11" value="Dừng lại sau n vòng lặp" style="text;html=1;align=center;verticalAlign=middle;whiteSpace=wrap;rounded=0;" vertex="1" parent="1">
          <mxGeometry x="1030" y="170" width="60" height="30" as="geometry" />
        </mxCell>
      </root>
    </mxGraphModel>
  </diagram>
</mxfile>
